<svg width="24" height="24" viewBox="0 0 24 24" fill="none" xmlns="http://www.w3.org/2000/svg">
<g id="Group 4">
<path id="Arrow 1" d="M13.5 2C13.5 1.17157 12.8284 0.5 12 0.5C11.1716 0.5 10.5 1.17157 10.5 2H13.5ZM10.9393 23.0607C11.5251 23.6464 12.4749 23.6464 13.0607 23.0607L22.6066 13.5147C23.1924 12.9289 23.1924 11.9792 22.6066 11.3934C22.0208 10.8076 21.0711 10.8076 20.4853 11.3934L12 19.8787L3.51472 11.3934C2.92893 10.8076 1.97919 10.8076 1.3934 11.3934C0.807611 11.9792 0.807611 12.9289 1.3934 13.5147L10.9393 23.0607ZM10.5 2L10.5 22H13.5L13.5 2H10.5Z" fill="white"/>
</g>
</svg>
