<svg width="35" height="35" viewBox="0 0 35 35" fill="none" xmlns="http://www.w3.org/2000/svg">
<g id="iconoir:instagram">
<g id="Group">
<path id="Vector" d="M17.5003 23.3334C19.0474 23.3334 20.5312 22.7188 21.6251 21.6249C22.7191 20.5309 23.3337 19.0472 23.3337 17.5001C23.3337 15.953 22.7191 14.4693 21.6251 13.3753C20.5312 12.2813 19.0474 11.6667 17.5003 11.6667C15.9532 11.6667 14.4695 12.2813 13.3755 13.3753C12.2816 14.4693 11.667 15.953 11.667 17.5001C11.667 19.0472 12.2816 20.5309 13.3755 21.6249C14.4695 22.7188 15.9532 23.3334 17.5003 23.3334Z" stroke="white" stroke-width="1.5" stroke-linecap="round" stroke-linejoin="round"/>
<path id="Vector_2" d="M4.375 23.3333V11.6667C4.375 9.7328 5.14323 7.87813 6.51068 6.51068C7.87813 5.14323 9.7328 4.375 11.6667 4.375H23.3333C25.2672 4.375 27.1219 5.14323 28.4893 6.51068C29.8568 7.87813 30.625 9.7328 30.625 11.6667V23.3333C30.625 25.2672 29.8568 27.1219 28.4893 28.4893C27.1219 29.8568 25.2672 30.625 23.3333 30.625H11.6667C9.7328 30.625 7.87813 29.8568 6.51068 28.4893C5.14323 27.1219 4.375 25.2672 4.375 23.3333Z" stroke="white" stroke-width="1.5"/>
<path id="Vector_3" d="M25.5205 9.49523L25.5364 9.47778" stroke="white" stroke-width="1.5" stroke-linecap="round" stroke-linejoin="round"/>
</g>
</g>
</svg>
