<svg width="24" height="24" viewBox="0 0 24 24" fill="none" xmlns="http://www.w3.org/2000/svg">
<g id="basil:instagram-solid">
<path id="Vector" d="M12 8.75C11.138 8.75 10.3114 9.09241 9.7019 9.7019C9.09241 10.3114 8.75 11.138 8.75 12C8.75 12.862 9.09241 13.6886 9.7019 14.2981C10.3114 14.9076 11.138 15.25 12 15.25C12.862 15.25 13.6886 14.9076 14.2981 14.2981C14.9076 13.6886 15.25 12.862 15.25 12C15.25 11.138 14.9076 10.3114 14.2981 9.7019C13.6886 9.09241 12.862 8.75 12 8.75Z" fill="#BDA06A"/>
<path id="Vector_2" fill-rule="evenodd" clip-rule="evenodd" d="M6.77007 3.08194C10.2461 2.69664 13.754 2.69664 17.2301 3.08194C19.1291 3.29394 20.6601 4.78894 20.8831 6.69494C21.2953 10.2196 21.2953 13.7803 20.8831 17.3049C20.6601 19.2109 19.1291 20.7059 17.2311 20.9189C13.7547 21.3043 10.2464 21.3043 6.77007 20.9189C4.87107 20.7059 3.34007 19.2109 3.11707 17.3059C2.70479 13.781 2.70479 10.2199 3.11707 6.69494C3.34007 4.78894 4.87107 3.29394 6.77007 3.08194ZM17.0001 5.99994C16.7348 5.99994 16.4805 6.1053 16.293 6.29284C16.1054 6.48037 16.0001 6.73473 16.0001 6.99994C16.0001 7.26516 16.1054 7.51951 16.293 7.70705C16.4805 7.89459 16.7348 7.99994 17.0001 7.99994C17.2653 7.99994 17.5196 7.89459 17.7072 7.70705C17.8947 7.51951 18.0001 7.26516 18.0001 6.99994C18.0001 6.73473 17.8947 6.48037 17.7072 6.29284C17.5196 6.1053 17.2653 5.99994 17.0001 5.99994ZM7.25007 11.9999C7.25007 10.7402 7.75051 9.53198 8.64131 8.64119C9.53211 7.75039 10.7403 7.24994 12.0001 7.24994C13.2598 7.24994 14.468 7.75039 15.3588 8.64119C16.2496 9.53198 16.7501 10.7402 16.7501 11.9999C16.7501 13.2597 16.2496 14.4679 15.3588 15.3587C14.468 16.2495 13.2598 16.7499 12.0001 16.7499C10.7403 16.7499 9.53211 16.2495 8.64131 15.3587C7.75051 14.4679 7.25007 13.2597 7.25007 11.9999Z" fill="#BDA06A"/>
</g>
</svg>
