<svg width="15" height="15" viewBox="0 0 15 15" fill="none" xmlns="http://www.w3.org/2000/svg">
<g id="fluent:mail-32-filled">
<path id="Vector" d="M0.939375 4.36078C0.963167 3.81782 1.19561 3.305 1.58824 2.92922C1.98087 2.55344 2.5034 2.34371 3.04688 2.34375H11.9531C12.4966 2.34371 13.0191 2.55344 13.4118 2.92922C13.8044 3.305 14.0368 3.81782 14.0606 4.36078L13.3688 4.74516L7.5 7.905L1.63125 4.74516L0.939375 4.36078ZM0.9375 5.43188V10.5469C0.9375 11.1063 1.15974 11.6428 1.55532 12.0384C1.95091 12.434 2.48743 12.6562 3.04688 12.6562H11.9531C12.5126 12.6562 13.0491 12.434 13.4447 12.0384C13.8403 11.6428 14.0625 11.1063 14.0625 10.5469V5.43188L13.8159 5.56922L7.72219 8.85047C7.6539 8.88723 7.57756 8.90647 7.5 8.90647C7.42244 8.90647 7.3461 8.88723 7.27781 8.85047L1.17844 5.56594L0.9375 5.43188Z" fill="white"/>
</g>
</svg>
