<svg width="15" height="15" viewBox="0 0 15 15" fill="none" xmlns="http://www.w3.org/2000/svg">
<g id="gg:phone">
<g id="Group">
<path id="Vector" d="M13.75 7.5C13.7497 5.8425 13.0911 4.25298 11.9191 3.08095C10.747 1.90892 9.1575 1.25033 7.5 1.25V2.5C8.48881 2.50022 9.45537 2.79352 10.2776 3.34284C11.0997 3.89215 11.7407 4.67283 12.1194 5.58625C12.3707 6.19298 12.5 6.84328 12.5 7.5H13.75ZM1.25 6.25V3.125C1.25 2.95924 1.31585 2.80027 1.43306 2.68306C1.55027 2.56585 1.70924 2.5 1.875 2.5H5C5.16576 2.5 5.32473 2.56585 5.44194 2.68306C5.55915 2.80027 5.625 2.95924 5.625 3.125V5.625C5.625 5.79076 5.55915 5.94973 5.44194 6.06694C5.32473 6.18415 5.16576 6.25 5 6.25H3.75C3.75 7.57608 4.27678 8.84785 5.21447 9.78553C6.15215 10.7232 7.42392 11.25 8.75 11.25V10C8.75 9.83424 8.81585 9.67527 8.93306 9.55806C9.05027 9.44085 9.20924 9.375 9.375 9.375H11.875C12.0408 9.375 12.1997 9.44085 12.3169 9.55806C12.4342 9.67527 12.5 9.83424 12.5 10V13.125C12.5 13.2908 12.4342 13.4497 12.3169 13.5669C12.1997 13.6842 12.0408 13.75 11.875 13.75H8.75C4.60813 13.75 1.25 10.3919 1.25 6.25Z" fill="white"/>
<path id="Vector_2" d="M10.9644 6.065C11.153 6.51989 11.2501 7.00754 11.25 7.5H10.125C10.1251 7.15526 10.0572 6.81388 9.92535 6.49536C9.79346 6.17684 9.60011 5.88743 9.35634 5.64366C9.11257 5.39989 8.82316 5.20654 8.50464 5.07465C8.18612 4.94276 7.84474 4.87492 7.5 4.875V3.75C8.24166 3.75004 8.96665 3.97 9.5833 4.38206C10.2 4.79413 10.6806 5.37979 10.9644 6.065Z" fill="white"/>
</g>
</g>
</svg>
